<?xml version="1.0" encoding="UTF-8" standalone="no"?>
<!-- Created with Inkscape (http://www.inkscape.org/) -->

<svg
   xmlns:dc="http://purl.org/dc/elements/1.1/"
   xmlns:cc="http://creativecommons.org/ns#"
   xmlns:rdf="http://www.w3.org/1999/02/22-rdf-syntax-ns#"
   xmlns:svg="http://www.w3.org/2000/svg"
   xmlns="http://www.w3.org/2000/svg"
   xmlns:sodipodi="http://sodipodi.sourceforge.net/DTD/sodipodi-0.dtd"
   xmlns:inkscape="http://www.inkscape.org/namespaces/inkscape"
   width="39.282986mm"
   height="39.282986mm"
   viewBox="0 0 39.282986 39.282986"
   version="1.1"
   id="svg8"
   inkscape:version="0.92.4 (unknown)"
   sodipodi:docname="gdevel.svg">
  <defs
     id="defs2" />
  <sodipodi:namedview
     id="base"
     pagecolor="#ffffff"
     bordercolor="#666666"
     borderopacity="1.0"
     inkscape:pageopacity="0.0"
     inkscape:pageshadow="2"
     inkscape:zoom="1.4227907"
     inkscape:cx="173.68333"
     inkscape:cy="92.440489"
     inkscape:document-units="mm"
     inkscape:current-layer="layer1"
     showgrid="false"
     inkscape:window-width="1366"
     inkscape:window-height="716"
     inkscape:window-x="0"
     inkscape:window-y="0"
     inkscape:window-maximized="1" />
  <metadata
     id="metadata5">
    <rdf:RDF>
      <cc:Work
         rdf:about="">
        <dc:format>image/svg+xml</dc:format>
        <dc:type
           rdf:resource="http://purl.org/dc/dcmitype/StillImage" />
        <dc:title></dc:title>
      </cc:Work>
    </rdf:RDF>
  </metadata>
  <g
     inkscape:label="Layer 1"
     inkscape:groupmode="layer"
     id="layer1"
     transform="translate(256.36947,212.09025)">
    <rect
       style="opacity:1;fill:#ffffff;fill-opacity:1;fill-rule:nonzero;stroke:#fe4c20;stroke-width:4.10814381;stroke-linecap:butt;stroke-linejoin:miter;stroke-miterlimit:4;stroke-dasharray:none;stroke-opacity:1;paint-order:markers stroke fill"
       id="rect900"
       width="35.174843"
       height="35.174843"
       x="-254.3154"
       y="-210.03618"
       inkscape:export-xdpi="271.56793"
       inkscape:export-ydpi="271.56793" />
    <text
       xml:space="preserve"
       style="font-style:normal;font-variant:normal;font-weight:normal;font-stretch:normal;font-size:10.58333302px;line-height:1.25;font-family:'Noto Sans';-inkscape-font-specification:'Noto Sans';letter-spacing:0px;word-spacing:0px;fill:#000000;fill-opacity:1;stroke:none;stroke-width:0.26458332"
       x="-177.0347"
       y="-248.98099"
       id="text817"><tspan
         sodipodi:role="line"
         id="tspan815"
         x="-177.0347"
         y="-248.98099"
         style="font-style:normal;font-variant:normal;font-weight:normal;font-stretch:normal;font-family:'Cutive Mono';-inkscape-font-specification:'Cutive Mono';stroke-width:0.26458332">govdevel</tspan></text>
    <text
       id="text821"
       y="-201.74693"
       x="-180.01007"
       style="font-style:normal;font-variant:normal;font-weight:normal;font-stretch:normal;font-size:10.58333302px;line-height:1.25;font-family:'Noto Sans';-inkscape-font-specification:'Noto Sans';letter-spacing:0px;word-spacing:0px;fill:#000000;fill-opacity:1;stroke:none;stroke-width:0.26458332"
       xml:space="preserve"><tspan
         style="font-style:normal;font-variant:normal;font-weight:normal;font-stretch:normal;font-family:'Cutive Mono';-inkscape-font-specification:'Cutive Mono';stroke-width:0.26458332"
         y="-201.74693"
         x="-180.01007"
         id="tspan819"
         sodipodi:role="line">govdevel</tspan></text>
    <g
       id="g876"
       transform="matrix(1.7660377,0,0,1.7660377,58.20755,125.02433)"
       style="fill:#000080">
      <path
         d="m -174.97281,-180.04157 q 0,-0.13435 0.12919,-0.24804 0.13436,-0.11886 0.35657,-0.18604 0.22737,-0.0672 0.49092,-0.0672 0.87334,0 1.30225,-0.31522 0.43408,-0.31523 0.43408,-0.99219 0,-0.46509 -0.29455,-0.83199 l 0.87333,-0.38241 q 0.36173,0 0.52193,-0.0723 0.16536,-0.0724 0.16536,-0.19121 0,-0.26355 -0.29972,-0.26355 -0.30489,0 -0.62528,0.21705 l -0.78549,0.52193 q -0.24288,-0.20154 -0.56327,-0.30489 -0.32039,-0.10336 -0.67179,-0.10336 -0.45992,0 -0.84233,0.15503 -0.37724,0.14986 -0.60461,0.46509 -0.22221,0.31006 -0.22221,0.76481 0,0.42375 0.22221,0.67696 0.22221,0.24805 0.66662,0.42892 -0.14986,0.0207 -0.32556,0.12919 -0.1757,0.10335 -0.29972,0.27388 -0.12402,0.16537 -0.12402,0.3514 0,0.23255 0.11885,0.38758 0.12402,0.14986 0.3669,0.26871 -0.27388,0.13436 -0.44441,0.40825 -0.17054,0.27905 -0.17054,0.65112 0,0.56844 0.44442,0.80615 0.44442,0.24288 1.14205,0.24288 0.55294,0 1.03353,-0.13436 0.48576,-0.13436 0.78031,-0.40824 0.29973,-0.27389 0.29973,-0.67696 0,-0.47542 -0.20671,-0.72347 -0.20671,-0.24805 -0.59428,-0.3359 -0.38757,-0.093 -1.02319,-0.093 h -0.48059 q -0.3204,0 -0.49093,-0.0517 -0.16536,-0.0568 -0.22221,-0.1447 -0.0568,-0.093 -0.0568,-0.22221 z m 0.99219,-0.88366 q -0.4961,0 -0.81649,-0.23771 -0.31523,-0.24288 -0.31523,-0.69764 0,-0.49092 0.32556,-0.7338 0.32557,-0.24288 0.83716,-0.24288 0.52193,0 0.85783,0.24805 0.3359,0.24288 0.3359,0.76998 0,0.49092 -0.34107,0.69246 -0.34106,0.20154 -0.88366,0.20154 z m 0.27388,1.67431 q 0.5116,0 0.79065,0.0724 0.27905,0.0672 0.39791,0.23771 0.12402,0.17054 0.12402,0.49093 0,0.40308 -0.49092,0.58911 -0.48576,0.18604 -1.13688,0.18604 -0.55811,0 -0.82166,-0.16537 -0.25838,-0.1602 -0.25838,-0.58911 0,-0.14469 0.0672,-0.32556 0.0723,-0.1757 0.1757,-0.31523 0.10335,-0.14469 0.20154,-0.18087 z"
         style="font-style:normal;font-variant:normal;font-weight:normal;font-stretch:normal;font-size:10.58333302px;line-height:1.25;font-family:'Cutive Mono';-inkscape-font-specification:'Cutive Mono';letter-spacing:0px;word-spacing:0px;fill:#000080;fill-opacity:1;stroke:none;stroke-width:0.26458332"
         id="path827"
         inkscape:connector-curvature="0" />
      <path
         d="m -169.61397,-181.11643 q 0,0.64595 0.27389,1.13171 0.27388,0.48576 0.76998,0.74931 0.49609,0.26355 1.14722,0.26355 0.65112,0 1.14721,-0.26355 0.4961,-0.26355 0.76998,-0.74931 0.27389,-0.48576 0.27389,-1.13171 0,-0.65113 -0.27389,-1.13689 -0.27388,-0.48575 -0.76998,-0.74414 -0.49609,-0.26355 -1.14721,-0.26355 -0.65113,0 -1.14722,0.26355 -0.4961,0.25839 -0.76998,0.74414 -0.27389,0.48576 -0.27389,1.13689 z m 0.55811,0 q 0,-0.50127 0.1912,-0.88884 0.19637,-0.39274 0.56328,-0.60978 0.37207,-0.22221 0.8785,-0.22221 0.50642,0 0.87333,0.22221 0.37207,0.21704 0.56327,0.60978 0.19637,0.38757 0.19637,0.88884 0,0.50642 -0.19637,0.89916 -0.1912,0.38758 -0.56327,0.60462 -0.36691,0.21704 -0.87333,0.21704 -0.50643,0 -0.8785,-0.21704 -0.36691,-0.21704 -0.56328,-0.60462 -0.1912,-0.39274 -0.1912,-0.89916 z"
         style="font-style:normal;font-variant:normal;font-weight:normal;font-stretch:normal;font-size:10.58333302px;line-height:1.25;font-family:'Cutive Mono';-inkscape-font-specification:'Cutive Mono';letter-spacing:0px;word-spacing:0px;fill:#000080;fill-opacity:1;stroke:none;stroke-width:0.26458332"
         id="path829"
         inkscape:connector-curvature="0" />
      <path
         d="m -163.30944,-183.05947 q -0.23771,0 -0.23771,0.21187 0,0.21188 0.21704,0.21188 h 0.52193 l 1.51929,3.27112 q 0.10852,0.23771 0.19637,0.30489 0.093,0.0723 0.21704,0.0723 0.11885,0 0.19637,-0.0672 0.0827,-0.062 0.1757,-0.28422 l 1.37976,-3.29695 h 0.45992 q 0.21704,0 0.21704,-0.21188 0,-0.21187 -0.23771,-0.21187 h -1.34876 q -0.2067,0 -0.2067,0.21704 0,0.20671 0.20154,0.20671 h 0.43925 l -1.26091,3.10058 -1.37976,-3.10058 h 0.56327 q 0.19637,0 0.19637,-0.20671 0,-0.21704 -0.20153,-0.21704 z"
         style="font-style:normal;font-variant:normal;font-weight:normal;font-stretch:normal;font-size:10.58333302px;line-height:1.25;font-family:'Cutive Mono';-inkscape-font-specification:'Cutive Mono';letter-spacing:0px;word-spacing:0px;fill:#000080;fill-opacity:1;stroke:none;stroke-width:0.26458332"
         id="path831"
         inkscape:connector-curvature="0" />
    </g>
    <g
       id="g857"
       transform="translate(-95.109808,-5.0796502)"
       style="fill:#ff0000">
      <path
         d="m -153.05167,-179.04421 0.96118,-0.10335 q 0.093,-0.0207 0.1447,-0.0827 0.0517,-0.0672 0.0517,-0.14469 0,-0.0775 -0.0517,-0.12919 -0.0517,-0.0517 -0.15503,-0.0517 h -0.031 l -0.76481,0.0568 v -5.45703 q 0,-0.20154 -0.21187,-0.20154 -0.0207,0 -0.10336,0.0103 l -0.97668,0.0982 q -0.0879,0.0155 -0.12919,0.0775 -0.0413,0.062 -0.0413,0.13436 0,0.0827 0.0568,0.13953 0.0568,0.0568 0.1447,0.0568 0.031,0 0.0568,-0.005 0.0258,-0.005 0.0465,-0.0103 l 0.66146,-0.0413 v 1.98437 q -0.31006,-0.26871 -0.65629,-0.40824 -0.34107,-0.13953 -0.81132,-0.13953 -0.59428,0 -1.0387,0.27906 -0.43925,0.27388 -0.67696,0.76481 -0.23771,0.48576 -0.23771,1.10071 0,0.62528 0.23771,1.11104 0.23771,0.48576 0.67696,0.75964 0.44442,0.27389 1.0387,0.27389 0.47542,0 0.87333,-0.1757 0.40307,-0.18087 0.64079,-0.46509 l 0.0155,0.31006 q 0.005,0.12919 0.0724,0.19637 0.0672,0.062 0.17053,0.062 z m -1.77767,-3.79305 q 0.90434,0 1.43661,0.66663 v 2.02571 q -0.52194,0.74931 -1.45728,0.74931 -0.46509,0 -0.79582,-0.23254 -0.33072,-0.23255 -0.50126,-0.62529 -0.17053,-0.39274 -0.17053,-0.86299 0,-0.47026 0.17053,-0.863 0.17054,-0.39274 0.50643,-0.62529 0.3359,-0.23254 0.81132,-0.23254 z"
         style="font-style:normal;font-variant:normal;font-weight:normal;font-stretch:normal;font-size:10.58333302px;line-height:1.25;font-family:'Cutive Mono';-inkscape-font-specification:'Cutive Mono';letter-spacing:0px;word-spacing:0px;fill:#ff0000;fill-opacity:1;stroke:none;stroke-width:0.26458332"
         id="path833"
         inkscape:connector-curvature="0" />
      <path
         d="m -150.30765,-181.16294 q 0,0.67696 0.29455,1.17305 0.29456,0.49093 0.82166,0.75448 0.53227,0.26355 1.22473,0.26355 0.43925,0 0.94051,-0.17054 0.50643,-0.17053 0.77515,-0.45992 0.093,-0.10335 0.093,-0.21704 0,-0.093 -0.0568,-0.16019 -0.0568,-0.0672 -0.14986,-0.0672 -0.10335,0 -0.21187,0.0879 -0.29456,0.27905 -0.6718,0.42374 -0.37207,0.13953 -0.75964,0.13953 -0.79582,0 -1.28674,-0.42375 -0.49093,-0.42374 -0.51677,-1.24023 l 3.25045,-0.0258 q 0.18087,0 0.28939,-0.12402 0.10852,-0.12919 0.10852,-0.32556 0,-0.55294 -0.24288,-0.94052 -0.23771,-0.38757 -0.66146,-0.58394 -0.41858,-0.20154 -0.95601,-0.20154 -0.63045,0 -1.15239,0.25322 -0.51676,0.25321 -0.82682,0.72864 -0.30489,0.47542 -0.30489,1.11621 z m 2.29443,-1.67432 q 0.80616,0 1.09038,0.40824 0.28422,0.40825 0.32039,0.96635 l -3.1936,0.0207 q 0.093,-0.66145 0.5581,-1.02836 0.47026,-0.3669 1.22473,-0.3669 z"
         style="font-style:normal;font-variant:normal;font-weight:normal;font-stretch:normal;font-size:10.58333302px;line-height:1.25;font-family:'Cutive Mono';-inkscape-font-specification:'Cutive Mono';letter-spacing:0px;word-spacing:0px;fill:#ff0000;fill-opacity:1;stroke:none;stroke-width:0.26458332"
         id="path835"
         inkscape:connector-curvature="0" />
      <path
         d="m -144.08581,-183.05947 q -0.23771,0 -0.23771,0.21187 0,0.21188 0.21704,0.21188 h 0.52193 l 1.51929,3.27112 q 0.10852,0.23771 0.19637,0.30489 0.093,0.0723 0.21704,0.0723 0.11886,0 0.19637,-0.0672 0.0827,-0.062 0.1757,-0.28422 l 1.37976,-3.29695 h 0.45992 q 0.21704,0 0.21704,-0.21188 0,-0.21187 -0.23771,-0.21187 h -1.34875 q -0.20671,0 -0.20671,0.21704 0,0.20671 0.20154,0.20671 h 0.43925 l -1.26091,3.10058 -1.37976,-3.10058 h 0.56328 q 0.19637,0 0.19637,-0.20671 0,-0.21704 -0.20154,-0.21704 z"
         style="font-style:normal;font-variant:normal;font-weight:normal;font-stretch:normal;font-size:10.58333302px;line-height:1.25;font-family:'Cutive Mono';-inkscape-font-specification:'Cutive Mono';letter-spacing:0px;word-spacing:0px;fill:#ff0000;fill-opacity:1;stroke:none;stroke-width:0.26458332"
         id="path837"
         inkscape:connector-curvature="0" />
      <path
         d="m -137.49189,-181.16294 q 0,0.67696 0.29455,1.17305 0.29456,0.49093 0.82166,0.75448 0.53226,0.26355 1.22473,0.26355 0.43925,0 0.94051,-0.17054 0.50643,-0.17053 0.77514,-0.45992 0.093,-0.10335 0.093,-0.21704 0,-0.093 -0.0568,-0.16019 -0.0568,-0.0672 -0.14986,-0.0672 -0.10336,0 -0.21188,0.0879 -0.29455,0.27905 -0.67179,0.42374 -0.37207,0.13953 -0.75964,0.13953 -0.79582,0 -1.28675,-0.42375 -0.49092,-0.42374 -0.51676,-1.24023 l 3.25045,-0.0258 q 0.18086,0 0.28938,-0.12402 0.10852,-0.12919 0.10852,-0.32556 0,-0.55294 -0.24287,-0.94052 -0.23772,-0.38757 -0.66146,-0.58394 -0.41858,-0.20154 -0.95602,-0.20154 -0.63045,0 -1.15238,0.25322 -0.51677,0.25321 -0.82682,0.72864 -0.30489,0.47542 -0.30489,1.11621 z m 2.29443,-1.67432 q 0.80615,0 1.09037,0.40824 0.28422,0.40825 0.3204,0.96635 l -3.19361,0.0207 q 0.093,-0.66145 0.55811,-1.02836 0.47025,-0.3669 1.22473,-0.3669 z"
         style="font-style:normal;font-variant:normal;font-weight:normal;font-stretch:normal;font-size:10.58333302px;line-height:1.25;font-family:'Cutive Mono';-inkscape-font-specification:'Cutive Mono';letter-spacing:0px;word-spacing:0px;fill:#ff0000;fill-opacity:1;stroke:none;stroke-width:0.26458332"
         id="path839"
         inkscape:connector-curvature="0" />
      <path
         d="m -128.7069,-185.1627 -2.16008,0.19637 q -0.0827,0.0103 -0.12402,0.0724 -0.0413,0.0568 -0.0413,0.13436 0,0.0879 0.0568,0.15503 0.0568,0.062 0.15503,0.062 l 0.0362,-0.005 1.82418,-0.14469 v 5.20898 h -1.90686 q -0.10335,0 -0.1602,0.062 -0.0568,0.062 -0.0568,0.1447 0,0.0879 0.062,0.15503 0.062,0.062 0.1757,0.062 h 4.13412 q 0.0982,0 0.14986,-0.062 0.0568,-0.062 0.0568,-0.14987 0,-0.0827 -0.0568,-0.14469 -0.0517,-0.0672 -0.1447,-0.0672 h -1.75699 v -5.51904 q 0,-0.0775 -0.0517,-0.11886 -0.0517,-0.0465 -0.13436,-0.0465 z"
         style="font-style:normal;font-variant:normal;font-weight:normal;font-stretch:normal;font-size:10.58333302px;line-height:1.25;font-family:'Cutive Mono';-inkscape-font-specification:'Cutive Mono';letter-spacing:0px;word-spacing:0px;fill:#ff0000;fill-opacity:1;stroke:none;stroke-width:0.26458332"
         id="path841"
         inkscape:connector-curvature="0" />
    </g>
    <g
       transform="matrix(0,0.5,-0.5,0,-230.85355,-103.87625)"
       id="g898">
      <path
         inkscape:connector-curvature="0"
         id="path888"
         style="font-style:normal;font-variant:normal;font-weight:normal;font-stretch:normal;font-size:10.58333302px;line-height:1.25;font-family:'Cutive Mono';-inkscape-font-specification:'Cutive Mono';letter-spacing:0px;word-spacing:0px;fill:#000000;fill-opacity:1;stroke:none;stroke-width:0.26458332"
         d="m -153.05167,-179.04421 0.96118,-0.10335 q 0.093,-0.0207 0.1447,-0.0827 0.0517,-0.0672 0.0517,-0.14469 0,-0.0775 -0.0517,-0.12919 -0.0517,-0.0517 -0.15503,-0.0517 h -0.031 l -0.76481,0.0568 v -5.45703 q 0,-0.20154 -0.21187,-0.20154 -0.0207,0 -0.10336,0.0103 l -0.97668,0.0982 q -0.0879,0.0155 -0.12919,0.0775 -0.0413,0.062 -0.0413,0.13436 0,0.0827 0.0568,0.13953 0.0568,0.0568 0.1447,0.0568 0.031,0 0.0568,-0.005 0.0258,-0.005 0.0465,-0.0103 l 0.66146,-0.0413 v 1.98437 q -0.31006,-0.26871 -0.65629,-0.40824 -0.34107,-0.13953 -0.81132,-0.13953 -0.59428,0 -1.0387,0.27906 -0.43925,0.27388 -0.67696,0.76481 -0.23771,0.48576 -0.23771,1.10071 0,0.62528 0.23771,1.11104 0.23771,0.48576 0.67696,0.75964 0.44442,0.27389 1.0387,0.27389 0.47542,0 0.87333,-0.1757 0.40307,-0.18087 0.64079,-0.46509 l 0.0155,0.31006 q 0.005,0.12919 0.0724,0.19637 0.0672,0.062 0.17053,0.062 z m -1.77767,-3.79305 q 0.90434,0 1.43661,0.66663 v 2.02571 q -0.52194,0.74931 -1.45728,0.74931 -0.46509,0 -0.79582,-0.23254 -0.33072,-0.23255 -0.50126,-0.62529 -0.17053,-0.39274 -0.17053,-0.86299 0,-0.47026 0.17053,-0.863 0.17054,-0.39274 0.50643,-0.62529 0.3359,-0.23254 0.81132,-0.23254 z" />
      <path
         inkscape:connector-curvature="0"
         id="path890"
         style="font-style:normal;font-variant:normal;font-weight:normal;font-stretch:normal;font-size:10.58333302px;line-height:1.25;font-family:'Cutive Mono';-inkscape-font-specification:'Cutive Mono';letter-spacing:0px;word-spacing:0px;fill:#000000;fill-opacity:1;stroke:none;stroke-width:0.26458332"
         d="m -150.30765,-181.16294 q 0,0.67696 0.29455,1.17305 0.29456,0.49093 0.82166,0.75448 0.53227,0.26355 1.22473,0.26355 0.43925,0 0.94051,-0.17054 0.50643,-0.17053 0.77515,-0.45992 0.093,-0.10335 0.093,-0.21704 0,-0.093 -0.0568,-0.16019 -0.0568,-0.0672 -0.14986,-0.0672 -0.10335,0 -0.21187,0.0879 -0.29456,0.27905 -0.6718,0.42374 -0.37207,0.13953 -0.75964,0.13953 -0.79582,0 -1.28674,-0.42375 -0.49093,-0.42374 -0.51677,-1.24023 l 3.25045,-0.0258 q 0.18087,0 0.28939,-0.12402 0.10852,-0.12919 0.10852,-0.32556 0,-0.55294 -0.24288,-0.94052 -0.23771,-0.38757 -0.66146,-0.58394 -0.41858,-0.20154 -0.95601,-0.20154 -0.63045,0 -1.15239,0.25322 -0.51676,0.25321 -0.82682,0.72864 -0.30489,0.47542 -0.30489,1.11621 z m 2.29443,-1.67432 q 0.80616,0 1.09038,0.40824 0.28422,0.40825 0.32039,0.96635 l -3.1936,0.0207 q 0.093,-0.66145 0.5581,-1.02836 0.47026,-0.3669 1.22473,-0.3669 z" />
      <path
         inkscape:connector-curvature="0"
         id="path892"
         style="font-style:normal;font-variant:normal;font-weight:normal;font-stretch:normal;font-size:10.58333302px;line-height:1.25;font-family:'Cutive Mono';-inkscape-font-specification:'Cutive Mono';letter-spacing:0px;word-spacing:0px;fill:#000000;fill-opacity:1;stroke:none;stroke-width:0.26458332"
         d="m -144.08581,-183.05947 q -0.23771,0 -0.23771,0.21187 0,0.21188 0.21704,0.21188 h 0.52193 l 1.51929,3.27112 q 0.10852,0.23771 0.19637,0.30489 0.093,0.0723 0.21704,0.0723 0.11886,0 0.19637,-0.0672 0.0827,-0.062 0.1757,-0.28422 l 1.37976,-3.29695 h 0.45992 q 0.21704,0 0.21704,-0.21188 0,-0.21187 -0.23771,-0.21187 h -1.34875 q -0.20671,0 -0.20671,0.21704 0,0.20671 0.20154,0.20671 h 0.43925 l -1.26091,3.10058 -1.37976,-3.10058 h 0.56328 q 0.19637,0 0.19637,-0.20671 0,-0.21704 -0.20154,-0.21704 z" />
      <path
         inkscape:connector-curvature="0"
         id="path894"
         style="font-style:normal;font-variant:normal;font-weight:normal;font-stretch:normal;font-size:10.58333302px;line-height:1.25;font-family:'Cutive Mono';-inkscape-font-specification:'Cutive Mono';letter-spacing:0px;word-spacing:0px;fill:#000000;fill-opacity:1;stroke:none;stroke-width:0.26458332"
         d="m -137.49189,-181.16294 q 0,0.67696 0.29455,1.17305 0.29456,0.49093 0.82166,0.75448 0.53226,0.26355 1.22473,0.26355 0.43925,0 0.94051,-0.17054 0.50643,-0.17053 0.77514,-0.45992 0.093,-0.10335 0.093,-0.21704 0,-0.093 -0.0568,-0.16019 -0.0568,-0.0672 -0.14986,-0.0672 -0.10336,0 -0.21188,0.0879 -0.29455,0.27905 -0.67179,0.42374 -0.37207,0.13953 -0.75964,0.13953 -0.79582,0 -1.28675,-0.42375 -0.49092,-0.42374 -0.51676,-1.24023 l 3.25045,-0.0258 q 0.18086,0 0.28938,-0.12402 0.10852,-0.12919 0.10852,-0.32556 0,-0.55294 -0.24287,-0.94052 -0.23772,-0.38757 -0.66146,-0.58394 -0.41858,-0.20154 -0.95602,-0.20154 -0.63045,0 -1.15238,0.25322 -0.51677,0.25321 -0.82682,0.72864 -0.30489,0.47542 -0.30489,1.11621 z m 2.29443,-1.67432 q 0.80615,0 1.09037,0.40824 0.28422,0.40825 0.3204,0.96635 l -3.19361,0.0207 q 0.093,-0.66145 0.55811,-1.02836 0.47025,-0.3669 1.22473,-0.3669 z" />
      <path
         inkscape:connector-curvature="0"
         id="path896"
         style="font-style:normal;font-variant:normal;font-weight:normal;font-stretch:normal;font-size:10.58333302px;line-height:1.25;font-family:'Cutive Mono';-inkscape-font-specification:'Cutive Mono';letter-spacing:0px;word-spacing:0px;fill:#000000;fill-opacity:1;stroke:none;stroke-width:0.26458332"
         d="m -128.7069,-185.1627 -2.16008,0.19637 q -0.0827,0.0103 -0.12402,0.0724 -0.0413,0.0568 -0.0413,0.13436 0,0.0879 0.0568,0.15503 0.0568,0.062 0.15503,0.062 l 0.0362,-0.005 1.82418,-0.14469 v 5.20898 h -1.90686 q -0.10335,0 -0.1602,0.062 -0.0568,0.062 -0.0568,0.1447 0,0.0879 0.062,0.15503 0.062,0.062 0.1757,0.062 h 4.13412 q 0.0982,0 0.14986,-0.062 0.0568,-0.062 0.0568,-0.14987 0,-0.0827 -0.0568,-0.14469 -0.0517,-0.0672 -0.1447,-0.0672 h -1.75699 v -5.51904 q 0,-0.0775 -0.0517,-0.11886 -0.0517,-0.0465 -0.13436,-0.0465 z" />
    </g>
  </g>
</svg>
